# xmcd
#
# Track frame offsets:
#        150
#        34030
#        65531
#        100172
#        136281
#        170845
#        208006
#        244116
#        280494
#
# Disc length: 4227 seconds
#
# Revision: 0
# Processed by: cddbd v1.5.1PL0 Copyright (c) Steve Scherf et al.
# Submitted via: ExactAudioCopy v0.95a5
#
DISCID=86108109
DTITLE=Various Artist - Waves From Ibiza 2
DYEAR=2004
DGENRE=Goa
TTITLE0=Koxbox vs Synthetic - Last Day Of Kristiana
TTITLE1=Dino Psaras - Meccanoids (Remix)
TTITLE2=Tristan vs Dimitri D.K.N. - Le Chat De L'espace (Remix)
TTITLE3=Dino Psaras - Raukus
TTITLE4=Deedrah - Highnoon (Remix)
TTITLE5=Bamboo Forest - Look Out (Remix)
TTITLE6=Psycraft - On The Road
TTITLE7=Bamboo Forest - Full Moon (Remix)
TTITLE8=GMS - Cycles Of Life (2003 Remix)
EXTD=
EXTT0=
EXTT1=
EXTT2=
EXTT3=
EXTT4=
EXTT5=
EXTT6=
EXTT7=
EXTT8=
PLAYORDER=
